<svg width="172" height="217" viewBox="0 0 172 217" fill="none" xmlns="http://www.w3.org/2000/svg">
<g clip-path="url(#clip0_5_68)">
<path d="M123.464 80.1541C123.337 79.0569 124.124 78.0644 125.221 77.9373L152.042 74.8314C153.139 74.7043 154.132 75.4908 154.259 76.588L167.143 187.844C167.27 188.942 166.483 189.934 165.386 190.061L138.565 193.167C137.468 193.294 136.475 192.508 136.348 191.411L123.464 80.1541Z" fill="#97430C"/>
<path d="M159.87 169.731L160.215 172.711C160.663 176.579 160.129 179.728 158.612 182.158C157.091 184.563 154.676 185.956 151.364 186.34C148.027 186.726 145.343 185.923 143.314 183.93C141.308 181.907 140.081 178.962 139.633 175.095L139.288 172.115C138.843 168.274 139.368 165.153 140.861 162.751C142.378 160.321 144.806 158.912 148.143 158.526C151.455 158.142 154.127 158.96 156.159 160.98C158.188 162.973 159.426 165.89 159.87 169.731ZM155.866 168.182C155.482 164.87 154.654 162.59 153.382 161.342C152.134 160.064 150.436 159.549 148.291 159.797C146.145 160.046 144.597 160.936 143.647 162.469C142.721 163.972 142.449 166.38 142.833 169.691L143.638 176.644C144.021 179.956 144.837 182.25 146.086 183.528C147.361 184.804 149.072 185.317 151.217 185.068C153.363 184.82 154.897 183.931 155.821 182.401C156.771 180.868 157.054 178.446 156.671 175.135L155.866 168.182Z" fill="white"/>
<rect width="1" height="116" rx="0.5" transform="matrix(-0.993361 0.115035 0.115035 0.993361 127.208 77.7072)" fill="#682E08"/>
<rect width="1" height="116" rx="0.5" transform="matrix(-0.993361 0.115035 0.115035 0.993361 151.048 74.9464)" fill="#682E08"/>
<rect x="103" y="190" width="89" height="27" fill="#067F9D"/>
<path d="M0 0H34V217H0V0Z" fill="#067F9D"/>
<rect x="34" y="190" width="69" height="27" fill="#067F9D"/>
<rect x="34" y="55" width="31" height="135" rx="2" fill="#F6DC88"/>
<path d="M44.6817 157.88V156.8H54.3217V157.88L52.1217 158.08C51.6951 158.133 51.4417 158.24 51.3617 158.4C51.2817 158.56 51.2417 159.107 51.2417 160.04V180.76C51.2417 181.693 51.2817 182.24 51.3617 182.4C51.4417 182.56 51.6951 182.667 52.1217 182.72L54.3217 182.96V184H44.6817V182.96L46.8817 182.72C47.3084 182.667 47.5617 182.56 47.6417 182.4C47.7217 182.24 47.7617 181.693 47.7617 180.76V160.04C47.7617 159.107 47.7217 158.56 47.6417 158.4C47.5617 158.24 47.3084 158.133 46.8817 158.08L44.6817 157.88Z" fill="white"/>
<rect x="37" y="55" width="1" height="135" fill="#EDB912"/>
<rect x="61" y="55" width="1" height="135" fill="#EDB912"/>
<rect x="65" y="48" width="31" height="142" rx="2" fill="#3DDC97"/>
<path d="M70.3106 157.88V156.8H81.1906C83.804 156.8 85.764 157.413 87.0706 158.64C88.3773 159.84 89.0306 161.387 89.0306 163.28V164.36C89.0306 165.747 88.6173 166.933 87.7906 167.92C86.964 168.907 85.804 169.6 84.3106 170C86.1773 170.32 87.6306 171.027 88.6706 172.12C89.7106 173.213 90.2306 174.587 90.2306 176.24V177.32C90.2306 179.267 89.5506 180.867 88.1906 182.12C86.8573 183.373 84.8573 184 82.1906 184H70.3106V182.96L72.5106 182.72C72.9373 182.667 73.1906 182.56 73.2706 182.4C73.3506 182.24 73.3906 181.693 73.3906 180.76V160.04C73.3906 159.107 73.3506 158.56 73.2706 158.4C73.1906 158.24 72.9373 158.133 72.5106 158.08L70.3106 157.88ZM81.1906 158.08H76.8706V169.52H81.1906C83.964 169.52 85.3506 167.907 85.3506 164.68V163.04C85.3506 159.733 83.964 158.08 81.1906 158.08ZM82.1906 170.8H76.8706V182.72H82.1906C85.0973 182.72 86.5506 181 86.5506 177.56V175.92C86.5506 174.267 86.1773 173 85.4306 172.12C84.7106 171.24 83.6306 170.8 82.1906 170.8Z" fill="white"/>
<rect width="1" height="142" rx="0.5" transform="matrix(-1 0 0 1 69 48)" fill="#1EA96D"/>
<rect width="1" height="142" rx="0.5" transform="matrix(-1 0 0 1 93 48)" fill="#1EA96D"/>
<rect x="96" y="35" width="31" height="154.994" rx="2" fill="#ED6A5A"/>
<path d="M100.92 158.17V157.09H112.04C114.653 157.09 116.653 157.717 118.04 158.97C119.453 160.197 120.16 161.837 120.16 163.89V165.13C120.16 166.757 119.707 168.144 118.8 169.29C117.92 170.41 116.653 171.184 115 171.61L120.12 181.05C120.467 181.69 120.72 182.144 120.88 182.41C121.04 182.65 121.187 182.81 121.32 182.89C121.48 182.944 121.693 182.984 121.96 183.01L123.76 183.25V184.29H117.72L111.4 171.97H107.48V181.05C107.48 181.984 107.52 182.53 107.6 182.69C107.68 182.85 107.933 182.957 108.36 183.01L110.56 183.25V184.29H100.92V183.25L103.12 183.01C103.547 182.957 103.8 182.85 103.88 182.69C103.96 182.53 104 181.984 104 181.05V160.33C104 159.397 103.96 158.85 103.88 158.69C103.8 158.53 103.547 158.424 103.12 158.37L100.92 158.17ZM112.04 158.37H107.48V170.69H112.04C113.427 170.69 114.507 170.25 115.28 169.37C116.08 168.464 116.48 167.104 116.48 165.29V163.73C116.48 161.917 116.08 160.57 115.28 159.69C114.507 158.81 113.427 158.37 112.04 158.37Z" fill="white"/>
<rect width="1" height="155" transform="matrix(-1 0 0 1 100 35)" fill="#E6341E"/>
<rect width="1" height="155" transform="matrix(-1 0 0 1 124 35)" fill="#E6341E"/>
</g>
<defs>
<clipPath id="clip0_5_68">
<rect width="172" height="217" fill="white"/>
</clipPath>
</defs>
</svg>
